<?xml version="1.0" encoding="UTF-8" standalone="no"?>
<!-- Created with Inkscape (http://www.inkscape.org/) -->

<svg
   width="168.98119mm"
   height="49.741665mm"
   viewBox="0 0 168.98119 49.741665"
   version="1.1"
   id="svg1"
   sodipodi:docname="calisialogofinalizada.svg"
   inkscape:version="1.4.2 (f4327f4, 2025-05-13)"
   xml:space="preserve"
   xmlns:inkscape="http://www.inkscape.org/namespaces/inkscape"
   xmlns:sodipodi="http://sodipodi.sourceforge.net/DTD/sodipodi-0.dtd"
   xmlns="http://www.w3.org/2000/svg"
   xmlns:svg="http://www.w3.org/2000/svg"><sodipodi:namedview
     id="namedview1"
     pagecolor="#000000"
     bordercolor="#000000"
     borderopacity="0.25"
     inkscape:showpageshadow="2"
     inkscape:pageopacity="0.0"
     inkscape:pagecheckerboard="0"
     inkscape:deskcolor="#d1d1d1"
     inkscape:document-units="mm"
     inkscape:zoom="0.50000001"
     inkscape:cx="1811"
     inkscape:cy="1373"
     inkscape:window-width="1280"
     inkscape:window-height="657"
     inkscape:window-x="-8"
     inkscape:window-y="-8"
     inkscape:window-maximized="1"
     inkscape:current-layer="layer1"
     showguides="true"
     inkscape:lockguides="true"
     inkscape:export-bgcolor="#00000000"><inkscape:page
       x="0"
       y="0"
       width="168.98119"
       height="49.741665"
       id="page2"
       margin="0"
       bleed="0" /></sodipodi:namedview><defs
     id="defs1"><inkscape:path-effect
       effect="fillet_chamfer"
       id="path-effect133"
       is_visible="true"
       lpeversion="1"
       nodesatellites_param="F,0,0,1,0,2.9999999,0,1 @ F,0,0,1,0,2.9999999,0,1 @ F,0,0,1,0,2.9999999,0,1 @ F,0,0,1,0,2.9999999,0,1"
       radius="3"
       unit="mm"
       method="auto"
       mode="F"
       chamfer_steps="1"
       flexible="false"
       use_knot_distance="true"
       apply_no_radius="true"
       apply_with_radius="true"
       only_selected="false"
       hide_knots="false" /><inkscape:path-effect
       effect="fillet_chamfer"
       id="path-effect131"
       is_visible="true"
       lpeversion="1"
       nodesatellites_param="F,0,0,1,0,2.9999999,0,1 @ F,0,0,1,0,2.9999999,0,1 @ F,0,0,1,0,2.9999999,0,1 @ F,0,0,1,0,2.9999999,0,1"
       radius="3"
       unit="mm"
       method="auto"
       mode="F"
       chamfer_steps="1"
       flexible="false"
       use_knot_distance="true"
       apply_no_radius="true"
       apply_with_radius="true"
       only_selected="false"
       hide_knots="false" /><inkscape:path-effect
       effect="fillet_chamfer"
       id="path-effect129"
       is_visible="true"
       lpeversion="1"
       nodesatellites_param="F,0,0,1,0,2.9999999,0,1 @ F,0,0,1,0,2.9999999,0,1 @ F,0,0,1,0,2.9999999,0,1 @ F,0,0,1,0,2.9999999,0,1"
       radius="3"
       unit="mm"
       method="auto"
       mode="F"
       chamfer_steps="1"
       flexible="false"
       use_knot_distance="true"
       apply_no_radius="true"
       apply_with_radius="true"
       only_selected="false"
       hide_knots="false" /><inkscape:path-effect
       effect="fillet_chamfer"
       id="path-effect127"
       is_visible="true"
       lpeversion="1"
       nodesatellites_param="F,0,0,1,0,2.9999999,0,1 @ F,0,0,1,0,2.9999999,0,1 @ F,0,0,1,0,2.9999999,0,1 @ F,0,0,1,0,2.9999999,0,1"
       radius="3"
       unit="mm"
       method="auto"
       mode="F"
       chamfer_steps="1"
       flexible="false"
       use_knot_distance="true"
       apply_no_radius="true"
       apply_with_radius="true"
       only_selected="false"
       hide_knots="false" /><inkscape:path-effect
       effect="fillet_chamfer"
       id="path-effect125"
       is_visible="true"
       lpeversion="1"
       nodesatellites_param="F,0,0,1,0,0,0,1 @ F,0,0,1,0,0,0,1 @ F,0,0,1,0,0,0,1 @ F,0,0,1,0,0,0,1 @ F,0,0,1,0,0,0,1 @ F,0,0,1,0,0,0,1 @ F,0,0,1,0,0,0,1 @ F,0,0,1,0,0,0,1 @ F,0,0,1,0,0,0,1 @ F,0,0,1,0,0,0,1 @ F,0,0,1,0,0,0,1 @ F,0,0,1,0,0,0,1 @ F,0,0,1,0,0,0,1"
       radius="0"
       unit="px"
       method="auto"
       mode="F"
       chamfer_steps="1"
       flexible="false"
       use_knot_distance="true"
       apply_no_radius="true"
       apply_with_radius="true"
       only_selected="false"
       hide_knots="false" /><linearGradient
       id="swatch791"
       inkscape:swatch="solid"><stop
         style="stop-color:#f3a6c1;stop-opacity:1;"
         offset="0"
         id="stop792" /></linearGradient></defs><g
     inkscape:label="Camada 1"
     inkscape:groupmode="layer"
     id="layer1"
     transform="translate(-383.20423,-478.89586)"><rect
       style="fill:#ffffff;fill-opacity:0;stroke-width:0.33343"
       id="rect3"
       width="168.98119"
       height="49.741669"
       x="383.20422"
       y="478.89584" /><g
       id="g123"
       transform="translate(-24.539783,128.58751)"><path
         style="fill:#c94c83;fill-opacity:1;stroke-width:0.26416"
         d="m 134.07562,204.21886 c -1.76525,-0.48187 -3.78194,0.3029 -3.38234,1.88783 0.53236,2.11149 3.70991,0.58062 6.75115,2.46509 8.16377,5.05861 -1.45025,13.71302 -9.50776,9.24061 -0.28894,-0.16038 -0.572,-0.34315 -0.85853,-0.53448 -5.74138,-3.8338 -0.18307,-9.16169 2.97469,-5.0431 2.7761,3.62081 6.83138,0.85267 5.23131,-0.78377 -1.43604,-1.46868 -3.95383,0.12945 -7.74798,-2.38793 -4.52284,-2.93082 -3.24615,-6.65679 0.2175,-8.68537 2.65092,-1.55258 6.3802,-1.90601 9.65468,-0.0606 0.69997,0.39449 1.58128,0.95872 2.42764,1.8773 1.0369,1.12538 0.88081,2.68671 0.0195,3.54715 -0.43067,0.43022 -1.03764,0.68522 -1.75996,0.6229 -1.87238,-0.16149 -2.22204,-1.65492 -4.0199,-2.14563 z"
         id="path46"
         sodipodi:nodetypes="sscsssscssssss"
         inkscape:original-d="m 134.07562,204.21886 c -1.76525,-0.48187 -3.78194,0.3029 -3.38234,1.88783 0.53236,2.11149 3.70991,0.58062 6.75115,2.46509 8.16377,5.05861 -1.45025,13.71302 -9.50776,9.24061 -0.28894,-0.16038 -0.572,-0.34315 -0.85853,-0.53448 -5.74138,-3.8338 -0.18307,-9.16169 2.97469,-5.0431 2.7761,3.62081 6.83138,0.85267 5.23131,-0.78377 -1.43604,-1.46868 -3.95383,0.12945 -7.74798,-2.38793 -4.52284,-2.93082 -3.24615,-6.65679 0.2175,-8.68537 2.65092,-1.55258 6.3802,-1.90601 9.65468,-0.0606 0.69997,0.39449 1.58128,0.95872 2.42764,1.8773 1.0369,1.12538 0.88081,2.68671 0.0195,3.54715 -0.43067,0.43022 -1.03764,0.68522 -1.75996,0.6229 -1.87238,-0.16149 -2.22204,-1.65492 -4.0199,-2.14563 z"
         inkscape:path-effect="#path-effect125"
         transform="translate(386.5423,171.17992)" /><path
         style="fill:#c94c83;fill-opacity:1;stroke-width:0.264583"
         id="path49"
         width="6"
         height="30"
         x="91.453568"
         y="189.30531"
         sodipodi:type="rect"
         ry="0"
         inkscape:path-effect="#path-effect127"
         d="m 94.453567,189.30531 h 10e-7 a 2.9999999,2.9999999 45 0 1 3,3 l 0,24 a 2.9999999,2.9999999 135 0 1 -3,3 h -10e-7 a 2.9999999,2.9999999 45 0 1 -2.999999,-3 v -24 a 2.9999999,2.9999999 135 0 1 2.999999,-3 z"
         transform="translate(388.36457,170.92992)" /><path
         style="fill:#c94c83;fill-opacity:1;stroke-width:0.264583"
         id="path54"
         width="6"
         height="20"
         x="113.56149"
         y="199.30531"
         inkscape:path-effect="#path-effect129"
         sodipodi:type="rect"
         d="m 116.56149,199.30531 h 0 a 2.9999999,2.9999999 45 0 1 3,3 l 0,14 a 2.9999999,2.9999999 135 0 1 -3,3 h 0 a 2.9999999,2.9999999 45 0 1 -3,-3 v -14 a 2.9999999,2.9999999 135 0 1 3,-3 z"
         transform="translate(387.13139,170.92992)" /><circle
         style="fill:#f3a6c1;fill-opacity:1;stroke-width:0.264583"
         id="circle54"
         cx="503.69281"
         cy="363.23523"
         r="3" /><path
         id="path55"
         style="fill:#c94c83;fill-opacity:1;stroke-width:0.264583"
         d="m 465.85167,370.16255 a 10,10 0 0 0 -9.9999,9.99991 10,10 0 0 0 9.9999,10.00042 10,10 0 0 0 4.82813,-1.24282 2.4999999,2.4999999 0 0 0 2.20142,1.31517 2.4999999,2.4999999 0 0 0 2.49958,-2.50011 v -4.54029 -6.06474 -4.39509 a 2.4999999,2.4999999 0 0 0 -2.49958,-2.49958 2.4999999,2.4999999 0 0 0 -2.13837,1.20457 10,10 0 0 0 -4.89118,-1.27744 z m 0.52917,5.00021 a 4,5 0 0 1 3.99976,4.9997 4,5 0 0 1 -3.99976,5.00021 4,5 0 0 1 -4.00027,-5.00021 4,5 0 0 1 4.00027,-4.9997 z" /><path
         id="path57"
         style="fill:#c94c83;fill-opacity:1;stroke-width:0.264583"
         d="m 551.97544,370.16255 a 10,10 0 0 0 -9.9999,9.99991 10,10 0 0 0 9.9999,10.00042 10,10 0 0 0 4.82813,-1.24282 2.4999999,2.4999999 0 0 0 2.20142,1.31517 2.4999999,2.4999999 0 0 0 2.49958,-2.50011 v -4.54029 -6.06474 -4.39509 a 2.4999999,2.4999999 0 0 0 -2.49958,-2.49958 2.4999999,2.4999999 0 0 0 -2.13837,1.20457 10,10 0 0 0 -4.89118,-1.27744 z m 0.52917,5.00021 a 4,5 0 0 1 3.99976,4.9997 4,5 0 0 1 -3.99976,5.00021 4,5 0 0 1 -4.00027,-5.00021 4,5 0 0 1 4.00027,-4.9997 z" /><path
         style="fill:#c94c83;fill-opacity:1;stroke-width:0.264583"
         id="path58"
         width="6"
         height="30"
         x="91.453568"
         y="189.30531"
         sodipodi:type="rect"
         ry="0"
         inkscape:path-effect="#path-effect131"
         d="m 94.453567,189.30531 h 10e-7 a 2.9999999,2.9999999 45 0 1 3,3 l 0,24 a 2.9999999,2.9999999 135 0 1 -3,3 h -10e-7 a 2.9999999,2.9999999 45 0 1 -2.999999,-3 v -24 a 2.9999999,2.9999999 135 0 1 2.999999,-3 z"
         transform="translate(398.80192,170.92992)" /><path
         style="fill:#c94c83;fill-opacity:1;stroke-width:0.264583"
         id="path71"
         width="6"
         height="20"
         x="113.56149"
         y="199.30531"
         inkscape:path-effect="#path-effect133"
         sodipodi:type="rect"
         d="m 116.56149,199.30531 h 0 a 2.9999999,2.9999999 45 0 1 3,3 l 0,14 a 2.9999999,2.9999999 135 0 1 -3,3 h 0 a 2.9999999,2.9999999 45 0 1 -3,-3 v -14 a 2.9999999,2.9999999 135 0 1 3,-3 z"
         transform="translate(417.97671,170.92992)" /><circle
         style="fill:#f3a6c1;fill-opacity:1;stroke-width:0.264583"
         id="circle71"
         cx="534.53815"
         cy="363.23523"
         r="3" /><g
         id="g122"
         transform="translate(-3.1244126,2.8148837)"><path
           id="path72"
           style="baseline-shift:baseline;display:inline;overflow:visible;vector-effect:none;fill:#c94c83;fill-opacity:1;stroke-width:2.18462;enable-background:accumulate;stop-color:#000000"
           d="m 429.62317,356.23857 c -2.05967,0.0127 -3.85347,0.41336 -5.52111,1.08003 -3.33527,1.33334 -6.12013,3.56589 -10.02213,5.68235 l -1.20458,0.65422 0.77411,1.1684 c 4.79787,7.20859 9.73782,11.81792 14.32885,14.2751 -1.01696,-2.03562 -1.57918,-4.31849 -1.57924,-6.69985 0,-5.40612 3.20091,-11.86911 10.24072,-14.22445 0.3696,-0.12366 0.73732,-0.22811 1.09916,-0.31626 -0.31934,-0.13108 -0.64849,-0.25383 -0.9865,-0.36794 h -0.009 l -0.004,-0.004 c -2.73095,-0.88515 -5.05668,-1.26021 -7.11636,-1.24747 z m 11.94294,6.17481 c -5.28282,0.24686 -9.60445,5.76135 -8.45478,12.00134 1.19631,6.4957 7.50897,9.63705 12.55427,7.08277 2.10102,-1.06368 2.82015,-2.44714 3.6928,-3.10059 2.40776,-1.8092 5.32474,-0.0689 3.86074,2.90887 -0.9755,1.9836 -4.6379,5.21224 -9.70328,5.93607 -3.02028,0.39866 -5.44736,-0.14629 -6.82646,-0.60151 0.68541,0.69372 1.44145,1.34948 2.24379,1.96732 5.19748,4.00227 12.36736,6.52622 16.88063,6.6058 l 1.12706,0.0196 0.0951,-1.09864 c 0.69178,-7.93787 0.59618,-13.76422 -0.52141,-18.05368 -1.11757,-4.28945 -3.43411,-7.10246 -6.843,-8.38812 -0.88158,-0.33247 -1.79939,-0.49987 -2.72903,-0.5302 -0.33866,-0.011 -0.67895,-0.004 -1.01957,0.0202 -0.37262,-1.58377 -1.05056,-3.13309 -2.04691,-4.53926 -0.78076,-0.19299 -1.55525,-0.26522 -2.30993,-0.22996 z" /><path
           id="path98"
           style="fill:#9e2f61;fill-opacity:1;stroke-width:0.844762"
           d="m 429.8769,357.48759 c -2.3952,0.0717 -4.79503,0.59174 -6.43113,1.61075 2.23387,-0.58587 5.00616,-0.50983 7.41866,-0.32039 -4.69516,-0.0959 -11.0674,1.34302 -15.38407,4.20077 5.71413,-1.81184 11.15756,-3.91399 16.91008,-2.59519 0.57699,-0.43124 1.19743,-0.82775 1.86242,-1.18339 -0.26672,-0.0716 -0.54913,-0.13408 -0.84543,-0.18758 0.36579,0.0358 0.70878,0.0684 1.02268,0.0946 0.48503,-0.25111 0.99289,-0.48046 1.52445,-0.68575 -1.60339,-0.67599 -3.83846,-1.00078 -6.07766,-0.93379 z m 0.49868,2.76572 c -1.73807,-0.0756 -3.72342,0.31894 -6.12676,1.48673 2.95068,-0.79055 5.13413,-0.87378 7.1577,-0.55087 0.25945,-0.23207 0.5292,-0.45697 0.80977,-0.67334 -0.58541,-0.14191 -1.19615,-0.23448 -1.84071,-0.26252 z m -6.41512,1.69809 c -0.0203,0.009 -0.0411,0.0208 -0.0625,0.0346 0.0155,-0.007 0.0469,-0.0277 0.0625,-0.0346 z m -0.0625,0.0346 c -1.23911,0.56532 -3.74046,2.41979 -5.01158,2.06396 1.79743,0.63588 4.20262,0.47271 4.47777,-0.91778 -0.2531,0.0494 -0.5471,0.29328 -1.14412,0.44442 0.7226,-0.32232 1.28561,-1.33751 1.67793,-1.5906 z m 6.14847,0.59428 c -2.68194,0.29413 -5.48078,1.27486 -7.25796,2.54713 1.40747,1.34324 3.05351,1.72677 4.65915,1.81126 0.5994,-1.53811 1.46115,-3.02766 2.59881,-4.35839 z m -10.93319,0.26562 c -1.19423,0.0457 -2.96258,0.89397 -4.82503,1.16013 0.65105,-0.0824 2.79449,0.24571 5.55419,-1.04645 -0.20854,-0.092 -0.45357,-0.12423 -0.72916,-0.11368 z m 17.60565,1.4428 c -1.19038,0.94921 -2.17363,2.21056 -2.84066,3.67368 0.11949,0.16441 0.22346,0.35332 0.31058,0.57051 -0.12518,-0.12659 -0.26371,-0.23857 -0.41393,-0.33693 -0.3068,0.71907 -0.53773,1.48425 -0.68109,2.28306 2.7077,0.35069 4.75269,-0.1414 4.16925,-2.00763 0.48549,-1.87063 0.21551,-3.23427 -0.54415,-4.18269 z m -19.16679,2.29237 c 2.92257,4.37885 6.34729,6.87241 8.96224,7.6786 -0.0762,-0.6116 -0.11522,-1.23285 -0.11524,-1.86087 0,-0.84172 0.0775,-1.7088 0.23513,-2.58227 -1.41201,-0.65029 -2.83014,-1.305 -3.47576,-1.62264 0.26111,0.43412 1.07425,1.2566 1.87431,1.78387 -2.79155,-1.12832 -5.80372,-2.7202 -7.48068,-3.39669 z m 7.57628,0.97513 c 0.52717,0.36677 1.13034,0.71346 1.77974,1.0325 0.0839,-0.3152 0.17861,-0.63011 0.2837,-0.94361 -0.75533,0.0234 -1.46299,0.0138 -2.06344,-0.0889 z m 23.5722,3.27164 c -0.92469,0.0221 -1.81407,0.44835 -2.57865,1.40301 0.17908,0.10905 0.35519,0.21346 0.52813,0.31471 -0.0675,0.0645 -0.1335,0.1362 -0.1974,0.21446 1.45787,1.81989 3.51045,0.56869 6.75514,5.74332 0.036,0.0481 0.0701,0.0981 0.10181,0.14986 -0.30665,-0.99541 -0.7386,-1.97469 -1.24489,-2.86184 1.2492,1.00295 2.47074,2.36218 3.84473,4.59662 -0.15099,-4.56389 -3.90644,-9.63901 -7.20887,-9.56014 z m -8.57983,1.55132 c 1.77273,2.55276 3.90183,5.69704 6.06268,8.83409 0.52522,-0.3118 0.95253,-0.64177 1.31516,-0.96635 -2.11064,-2.70708 -4.51428,-5.29906 -7.37784,-7.86774 z m 4.57801,1.40147 c -0.49092,0.0119 -0.99881,0.0709 -1.52342,0.18087 2.69561,1.11765 4.85903,2.57134 6.57944,4.17183 0.69859,-0.40805 1.41655,-0.53744 2.04122,-0.44183 -1.75748,-2.33552 -4.11768,-3.98333 -7.09724,-3.91087 z m -1.22473,1.04851 c 1.74797,1.84968 3.20356,3.51604 4.43229,5.03122 0.40255,-0.40283 0.72281,-0.7822 1.03094,-1.09037 -1.43747,-1.3535 -3.22657,-2.67338 -5.46323,-3.94085 z m -0.44958,3.06803 c 0.32896,1.61761 0.68196,2.98036 1.12292,4.19045 0.48442,-0.13492 0.96358,-0.31629 1.43196,-0.54674 -0.81053,-1.16807 -1.65107,-2.37435 -2.55488,-3.64371 z m 10.48669,2.6386 c -0.0643,0.24559 -0.16061,0.50279 -0.29197,0.76998 -0.0874,0.17773 -0.19645,0.36566 -0.32608,0.56069 1.72354,2.65656 2.54468,5.32868 2.79828,7.31325 -0.0212,-2.33422 -0.7404,-5.67207 -2.18023,-8.64392 z m -11.47888,0.007 c -0.0708,0.6782 -0.12353,1.28916 -0.15606,1.84174 0.31296,0.004 0.62694,-0.0111 0.94051,-0.0439 -0.25229,-0.54818 -0.51292,-1.14493 -0.78445,-1.79782 z m 10.16579,2.21382 c -0.34941,0.39172 -0.76575,0.79501 -1.24282,1.19269 1.86004,2.74549 2.93847,4.91014 3.94084,6.83421 -0.40295,-2.64279 -1.08149,-5.36218 -2.69802,-8.0269 z m -1.76114,1.60403 c -0.43016,0.32483 -0.90103,0.64174 -1.4087,0.94051 2.72449,3.86353 5.26599,7.28165 6.94066,8.99325 -1.73945,-3.5769 -3.51199,-6.84944 -5.53196,-9.93376 z m -2.00298,1.27228 c -0.56817,0.30109 -1.17637,0.57779 -1.82107,0.81803 1.60252,1.96227 3.90743,3.86784 7.42797,6.52777 -2.14959,-2.57878 -3.90449,-4.9436 -5.6069,-7.3458 z m -2.98018,1.19734 c -0.61931,0.17531 -1.26622,0.31537 -1.93786,0.41134 -0.16902,0.0223 -0.33604,0.0418 -0.50126,0.0584 1.34033,1.31411 3.93898,2.00527 8.36228,4.52013 -2.65497,-2.17578 -4.32516,-3.02086 -5.92316,-4.98987 z" /><path
           id="path99"
           style="baseline-shift:baseline;display:inline;overflow:visible;vector-effect:none;fill:#f3a6c1;fill-opacity:1;stroke-width:1.95489;enable-background:accumulate;stop-color:#000000"
           d="m 456.21327,349.05709 -1.05213,0.18501 c -7.6021,1.33475 -13.02936,2.83455 -16.76021,4.84053 -2.99986,1.61293 -4.91031,3.66093 -5.7211,6.09058 1.15211,-0.81758 2.46995,-1.50032 3.95996,-1.99884 3.0961,-1.03589 6.04599,-0.73352 6.73447,-0.64182 5.10072,0.6801 8.84557,3.92765 9.84488,5.95984 1.4639,2.97756 -1.45256,4.71748 -3.86023,2.90886 -0.94461,-0.74281 -1.6488,-2.05659 -3.69331,-3.1011 -6.86026,-3.37008 -13.99327,3.30415 -12.55427,11.11457 1.19631,6.4957 7.50897,9.63705 12.55427,7.08277 0.1133,-0.0574 0.22264,-0.11561 0.32814,-0.17467 0.54451,-1.22998 0.8654,-2.44008 0.9772,-3.61114 0.13993,-1.46555 -0.0915,-2.82599 -0.60564,-4.04472 1.02799,-0.16019 1.98588,-0.49696 2.85305,-0.98702 2.42648,-1.37124 4.13435,-3.77456 5.34955,-6.49986 2.43039,-5.45058 2.97891,-12.24073 1.91202,-16.14785 z m -29.81368,23.20944 c -0.45306,0.59524 -0.86748,1.2498 -1.23558,1.96577 l -0.001,0.007 -0.005,0.003 c -2.23863,4.49524 -2.4214,7.85073 -1.57045,10.90631 0.85096,3.05558 2.58955,5.75047 4.09639,9.39684 l 0.46612,1.12603 1.16014,-0.51883 c 5.34135,-2.40315 9.363,-5.06074 12.21217,-7.77265 -2.12561,0.0138 -3.82526,-0.40232 -4.88239,-0.75603 -6.11691,-2.04655 -10.24058,-7.7748 -10.24072,-14.22497 0,-0.0441 9e-5,-0.0881 5.2e-4,-0.13229 z" /><path
           id="path101"
           style="fill:#e0719f;fill-opacity:1;stroke-width:0.781955"
           d="m 454.95702,350.75466 c -0.91375,1.70758 -1.85385,3.43764 -2.90628,5.17282 0.10871,-0.68593 0.10209,-1.33991 -0.0677,-1.92288 -0.35002,1.69354 -1.11892,3.43654 -1.89756,4.94956 -0.19276,0.27607 -0.38933,0.55205 -0.59066,0.82786 0.41011,0.26181 0.7929,0.53437 1.1467,0.81184 2.32608,-3.37434 4.07596,-7.0422 4.3155,-9.8392 z m -2.58796,0.26459 c -4.7639,2.02076 -9.61843,2.79702 -9.55703,4.86533 1.31181,-1.68188 5.43315,-0.96272 9.55703,-4.86533 z m 3.16725,2.32182 c -1.04625,2.28291 -1.2528,4.62223 -3.76359,8.24963 0.67556,0.6737 1.16775,1.33498 1.44642,1.90169 0.10577,0.21512 0.18875,0.42395 0.25063,0.62528 1.61332,-3.16454 2.53771,-6.97739 2.06654,-10.7766 z m -5.37435,1.10588 c -1.91999,0.43888 -3.86949,1.65007 -5.61412,3.29127 0.52056,0.113 1.02444,0.25176 1.50998,0.41186 1.18972,-1.40323 2.53085,-2.67964 4.10414,-3.70313 z m -8.32507,0.79478 c -1.85481,0.44897 -3.94548,1.43208 -5.38313,2.9962 0.0616,-0.0215 0.12382,-0.0427 0.18603,-0.0636 1.20904,-0.40452 2.39593,-0.60488 3.43442,-0.6935 0.35184,-0.85243 0.89719,-1.61703 1.76268,-2.23914 z m 0.0176,7.16339 c -0.36315,0.004 -0.7224,0.032 -1.0759,0.0842 -0.67603,1.14969 -1.2344,2.34324 -1.63763,3.52536 -0.0291,-0.96516 -0.23418,-1.96579 -0.14159,-3.04994 -1.41794,0.55562 -2.68749,1.49906 -3.69487,2.7156 0.28703,0.74995 0.68246,1.54204 1.202,2.3766 -1.10046,0.34421 -2.15481,0.78176 -3.14865,1.30173 -0.44755,1.52257 -0.56921,3.20279 -0.26717,4.9413 0.95485,-1.99337 2.35377,-4.04289 3.51917,-6.0787 0.0801,0.1256 0.16335,0.25178 0.24908,0.3793 0.82389,-0.12704 1.36815,-0.11007 1.71462,-0.3824 -0.0716,0.42476 -0.11844,0.84314 -0.13901,1.25263 0.43332,-0.55607 0.85474,-1.15458 1.27176,-1.78335 -0.0811,0.34794 -0.10742,0.67882 -0.0692,0.98237 0.16185,0.3472 0.35914,0.49499 0.58239,0.48731 -0.30963,0.2327 -0.62571,0.46435 -0.94878,0.69556 2.11988,0.27145 5.29518,-2.02534 8.23774,-5.28546 -0.3354,-0.30215 -0.72364,-0.60839 -1.19528,-0.90176 -1.4512,1.57679 -3.10609,3.1379 -5.03121,4.67 1.03579,-1.32833 2.24359,-3.95849 3.11143,-5.54695 -0.23385,-0.0737 -0.46734,-0.13659 -0.70021,-0.18861 -0.60597,0.416 -1.19089,0.91203 -1.71876,1.449 0.32014,-0.52336 0.64584,-1.05136 0.9803,-1.57871 -0.36991,-0.0477 -0.73704,-0.0688 -1.10019,-0.0651 z m 6.64352,3.16104 c -1.55141,1.64339 -3.52874,3.50278 -6.0756,5.6348 2.61246,1.63813 6.3324,-0.34169 9.16379,-4.07107 -0.6954,0.0489 -1.48546,-0.17141 -2.22726,-0.72864 -0.29437,-0.23148 -0.56541,-0.51813 -0.86093,-0.83509 z M 437.98238,370.37 c -0.0411,0.0169 -0.0832,0.0445 -0.12713,0.0822 -0.062,-0.0223 -0.11348,-0.032 -0.15038,-0.031 -0.0864,0.003 -0.0932,0.0631 0.0295,0.15555 -0.69445,0.82801 -1.71281,3.83236 -3.21221,7.52874 0.27255,0.43582 0.57443,0.84201 0.90072,1.21646 1.77989,-3.31043 2.99312,-6.77197 2.66806,-8.55606 0.10506,0.0436 0.23098,0.0893 0.37982,0.1359 -0.15193,-0.16713 -0.30185,-0.28444 -0.4315,-0.36121 -0.0168,-0.0592 -0.0354,-0.11603 -0.0563,-0.17054 z m 0.48834,0.53175 c 0.90166,0.99201 1.87721,3.74381 -0.8568,10.25933 0.55784,0.33414 1.14579,0.60322 1.75287,0.80305 0.35195,-0.53493 0.67716,-1.12805 0.94723,-1.82935 -0.15496,0.78032 -0.32205,1.42178 -0.5023,1.96267 0.91014,0.24544 1.85579,0.33731 2.80086,0.26252 2.31262,-5.60571 -0.46693,-11.54485 -2.39106,-11.08614 -0.78183,-0.11432 -1.34984,-0.24641 -1.7508,-0.37208 z m -2.59778,-0.003 c -0.57924,1.69161 -1.55359,3.28847 -2.44377,4.80953 0.10174,0.32751 0.21733,0.6445 0.34571,0.95084 0.70461,-1.51141 1.42101,-3.33485 2.09806,-5.76037 z m -9.15551,4.57802 c -2.6415,4.41781 -2.79048,10.06 1.32292,15.5546 -0.0753,-4.08226 -0.33304,-8.62873 0.78858,-10.44794 -1.00408,-1.54163 -1.72681,-3.27016 -2.1115,-5.10666 z m 2.36988,5.4901 c -0.38138,1.22195 -0.69286,2.9989 0.14108,7.74216 0.26442,-2.54279 0.76402,-4.32344 1.40611,-5.86372 -0.56632,-0.58387 -1.08356,-1.21232 -1.54719,-1.87844 z m 2.7988,3.03031 c -0.25812,0.51303 -0.52584,1.025 -0.80254,1.53324 0.37189,-0.38319 0.74829,-0.81276 1.12293,-1.27796 -0.10808,-0.0838 -0.21483,-0.16866 -0.32039,-0.25528 z m 3.32848,2.06757 c -1.10533,2.49738 -2.83836,4.67345 -4.55115,7.11895 2.62544,-1.73356 6.02175,-3.42435 8.05067,-6.0384 -0.80472,-0.14142 -1.48306,-0.32741 -2.01021,-0.50074 -0.27355,0.36787 -0.55924,0.79362 -0.85679,1.3069 0.11026,-0.5383 0.25858,-1.01709 0.43511,-1.45263 -0.36348,-0.13182 -0.71936,-0.27664 -1.06763,-0.43408 z" /><g
           id="g121"
           transform="matrix(0.96020669,0,0,1.043002,84.311107,82.35392)"><g
             id="g120"
             transform="translate(0,-0.31709351)"><path
               style="fill:#f995b8;fill-opacity:1;stroke-width:0.4"
               d="m 372.98271,277.20967 c -0.081,6.53204 -9.61766,6.17277 -8.18985,-0.70547 0.2273,0.54576 1.59343,0.65347 2.98468,1.29736 0.69562,0.32195 1.33551,1.22029 2.11533,1.07633 0.77981,-0.14395 2.04681,-1.60305 2.77295,-2.53986 z"
               id="path115"
               sodipodi:nodetypes="ccsscc" /><path
               id="path116"
               style="fill:#f378a3;fill-opacity:1;stroke-width:0.774104"
               d="m 367.4331,277.17217 c -0.37425,1.01955 0.74555,2.1446 1.65881,2.39985 2.03685,0.0876 4.14608,-1.92417 3.65404,-3.45043 0.92864,1.1701 -0.0235,3.32094 -0.43098,3.92482 0.0457,-0.0271 0.0908,-0.0546 0.13539,-0.0817 -0.0168,0.002 -0.0334,0.004 -0.0496,0.005 4.08039,-2.71419 2.9071,-6.3703 0.0848,-6.3562 -2.24653,-0.0667 -4.15792,1.58876 -5.05241,3.55866 z m -1.47072,0.86351 v 5.2e-4 c 0.23784,0.22359 0.50983,0.44658 0.80616,0.65267 -0.2962,-0.20609 -0.56837,-0.4296 -0.80616,-0.65319 z m 0.98599,0.76895 c 0.0899,0.0583 0.1785,0.11748 0.27234,0.17156 -0.0937,-0.054 -0.18255,-0.11334 -0.27234,-0.17156 z m 0.47904,0.27957 c 0.0782,0.041 0.15423,0.0858 0.23461,0.12299 0.0334,0.0155 0.0666,0.0306 0.0997,0.045 -0.11467,-0.0501 -0.22388,-0.11007 -0.33435,-0.16795 z"
               sodipodi:nodetypes="sccccccscccccccsccss" /><path
               id="path117"
               style="fill:#f9c2d6;stroke-width:0.4"
               d="m 363.40573,270.0321 c 0.58365,0.73402 0.79889,1.61818 0.87023,2.54609 0.0553,1.00465 -0.1969,2.5437 -0.22841,3.16674 l -5.2e-4,5.1e-4 c -0.0448,0.70147 -0.0319,1.4498 0.14366,2.30115 0.14182,0.6878 0.36831,1.29558 0.65836,1.8216 0.5801,1.05206 1.4141,1.77663 2.33112,2.15697 1.83403,0.76068 4.00046,0.14491 5.13406,-1.97817 v -5.2e-4 h 5.1e-4 c 0.40749,-0.60388 1.35962,-2.75472 0.43098,-3.92482 0.30219,0.9374 -0.63177,5.68457 -4.31033,5.34696 -1.81869,-0.16692 -3.32852,-1.94066 -3.4773,-4.69997 0.30795,0.73941 2.19043,2.76928 4.2757,2.83703 -1.87061,-0.36375 -2.09318,-2.6353 0.34934,-4.52324 0.78867,-0.6096 1.72164,-1.01087 2.60449,-1.00562 2.82235,-0.0141 2.9373,3.47665 0.2129,5.89318 0.0162,-10e-4 0.0328,-0.003 0.0496,-0.005 -0.0446,0.027 -0.0897,0.0545 -0.13539,0.0817 3.46344,0.27879 4.95789,-2.91695 4.19303,-5.65805 -1.19576,-4.05255 -4.88091,-4.26642 -8.51421,-4.26951 -0.79041,-0.003 -1.5808,-0.009 -2.37113,-0.0207 -0.64151,-0.0104 -2.18501,-0.065 -2.21691,-0.0661 z"
               sodipodi:nodetypes="ccccsssccccsccscccccsccc" /><path
               style="fill:#f995b8;fill-opacity:1;stroke-width:0.4"
               d="m 372.4008,279.97 c 0.63856,-0.0469 1.76673,-0.5992 2.61371,-1.58787 2.25476,-2.63195 -0.43903,-8.18794 -6.21431,-7.25278 2.66401,0.15303 8.69913,3.92371 3.6006,8.84065 z"
               id="path118"
               sodipodi:nodetypes="cscc" /><ellipse
               style="fill:#d95986;fill-opacity:1;stroke-width:0.288238"
               id="ellipse118"
               cx="330.77017"
               cy="451.39413"
               rx="1.6574516"
               ry="1.1665189"
               transform="matrix(0.86401599,-0.50346436,0.18796053,0.98217658,0,0)" /></g></g></g></g></g></svg>
